<svg id="Ebene_1" data-name="Ebene 1" xmlns="http://www.w3.org/2000/svg" viewBox="0 0 103.22 73.35"><defs><style>.cls-1,.cls-2,.cls-3{fill:none;}.cls-1,.cls-2,.cls-3,.cls-4{stroke:#e63b1e;stroke-miterlimit:10;}.cls-1{stroke-width:4px;}.cls-2{stroke-width:3px;}.cls-3,.cls-4{stroke-width:2px;}.cls-4{fill:#e63b20;}</style></defs><path class="cls-1" d="M188.68,370.84l46.58,18.72a2.14,2.14,0,0,1,0,4L190.4,411.17a6.74,6.74,0,0,1-4.88,0l-28-10.86L138.76,393a2.14,2.14,0,0,1,0-4S187.24,370.26,188.68,370.84Z" transform="translate(-135.39 -368.83)"/><path class="cls-1" d="M215.22,400.66v19.27a7.26,7.26,0,0,1-3.24,6.13,45.85,45.85,0,0,1-14.57,6.14c-15.56,3.53-28.77-2.34-35.33-6.14a7.3,7.3,0,0,1-3.58-6.33V400.66" transform="translate(-135.39 -368.83)"/><path class="cls-2" d="M187,391.23l34.14,6.82a2.2,2.2,0,0,1,1.77,2.14l.37,32.77v.73" transform="translate(-135.39 -368.83)"/><path class="cls-3" d="M187,392.18" transform="translate(-135.39 -368.83)"/><ellipse class="cls-4" cx="51.94" cy="22.82" rx="2.54" ry="2.55"/><path class="cls-4" d="M221.7,431.74l-3.3,6.93a1.75,1.75,0,0,0,1.59,2.5h6.6a1.75,1.75,0,0,0,1.58-2.5l-3.3-6.93A1.76,1.76,0,0,0,221.7,431.74Z" transform="translate(-135.39 -368.83)"/></svg>