<svg id="Ebene_1" data-name="Ebene 1" xmlns="http://www.w3.org/2000/svg" viewBox="0 0 174.34 113.94"><defs><style>.cls-1,.cls-3{fill:none;stroke:#fff;stroke-miterlimit:10;}.cls-1{stroke-width:14px;}.cls-2{fill:#fff;}.cls-3{stroke-width:8px;}</style></defs><path class="cls-1" d="M130.71,78.05,206,108.3a3.46,3.46,0,0,1,0,6.44L133.5,143.22a10.85,10.85,0,0,1-7.89,0L80.43,125.67,50,113.86a3.46,3.46,0,0,1,0-6.44S128.39,77.12,130.71,78.05Z" transform="translate(-40.83 -71.03)"/><path class="cls-1" d="M173.83,125.24v31.14a11.72,11.72,0,0,1-5.23,9.9,74,74,0,0,1-23.54,9.93c-25.16,5.71-46.51-3.78-57.1-9.91a11.81,11.81,0,0,1-5.79-10.25V125.24" transform="translate(-40.83 -71.03)"/><path class="cls-2" d="M195.45,150.21l-7.18,15.07a4.7,4.7,0,0,0,4.24,6.72h14.37a4.7,4.7,0,0,0,4.24-6.72l-7.19-15.07A4.7,4.7,0,0,0,195.45,150.21Z" transform="translate(-40.83 -71.03)"/><line class="cls-3" x1="158.86" y1="40.89" x2="158.86" y2="82.89"/></svg>